  0
SECTION
  2
ENTITIES
  0
LINE
 10
0.000000
 11
0.000000
 20
0.000000
 21
62.500000
  0
LINE
 10
0.000000
 11
3.300000
 20
62.500000
 21
62.500000
  0
LINE
 10
3.300000
 11
3.300000
 20
62.500000
 21
137.500000
  0
LINE
 10
3.300000
 11
0.000000
 20
137.500000
 21
137.500000
  0
LINE
 10
0.000000
 11
0.000000
 20
137.500000
 21
200.000000
  0
LINE
 10
0.000000
 11
62.500000
 20
200.000000
 21
200.000000
  0
LINE
 10
62.500000
 11
62.500000
 20
200.000000
 21
196.800000
  0
LINE
 10
62.500000
 11
137.500000
 20
196.800000
 21
196.800000
  0
LINE
 10
137.500000
 11
137.500000
 20
196.800000
 21
200.000000
  0
LINE
 10
137.500000
 11
200.000000
 20
200.000000
 21
200.000000
  0
LINE
 10
200.000000
 11
200.000000
 20
200.000000
 21
137.500000
  0
LINE
 10
200.000000
 11
196.800000
 20
137.500000
 21
137.500000
  0
LINE
 10
196.800000
 11
196.800000
 20
137.500000
 21
62.500000
  0
LINE
 10
196.800000
 11
200.000000
 20
62.500000
 21
62.500000
  0
LINE
 10
200.000000
 11
200.000000
 20
62.500000
 21
0.000000
  0
LINE
 10
200.000000
 11
137.500000
 20
0.000000
 21
0.000000
  0
LINE
 10
137.500000
 11
137.500000
 20
0.000000
 21
3.300000
  0
LINE
 10
137.500000
 11
62.500000
 20
3.300000
 21
3.300000
  0
LINE
 10
62.500000
 11
62.500000
 20
3.300000
 21
0.000000
  0
LINE
 10
62.500000
 11
0.000000
 20
0.000000
 21
0.000000
  0
LINE
 10
28.386000
 11
28.386000
 20
33.718000
 21
35.482000
  0
LINE
 10
28.386000
 11
30.064000
 20
35.482000
 21
36.027000
  0
LINE
 10
30.064000
 11
31.100000
 20
36.027000
 21
34.600000
  0
LINE
 10
31.100000
 11
30.064000
 20
34.600000
 21
33.173000
  0
LINE
 10
30.064000
 11
28.386000
 20
33.173000
 21
33.718000
  0
LINE
 10
28.386000
 11
28.386000
 20
164.518000
 21
166.282000
  0
LINE
 10
28.386000
 11
30.064000
 20
166.282000
 21
166.827000
  0
LINE
 10
30.064000
 11
31.100000
 20
166.827000
 21
165.400000
  0
LINE
 10
31.100000
 11
30.064000
 20
165.400000
 21
163.973000
  0
LINE
 10
30.064000
 11
28.386000
 20
163.973000
 21
164.518000
  0
LINE
 10
169.186000
 11
169.186000
 20
33.718000
 21
35.482000
  0
LINE
 10
169.186000
 11
170.864000
 20
35.482000
 21
36.027000
  0
LINE
 10
170.864000
 11
171.900000
 20
36.027000
 21
34.600000
  0
LINE
 10
171.900000
 11
170.864000
 20
34.600000
 21
33.173000
  0
LINE
 10
170.864000
 11
169.186000
 20
33.173000
 21
33.718000
  0
LINE
 10
169.186000
 11
169.186000
 20
164.518000
 21
166.282000
  0
LINE
 10
169.186000
 11
170.864000
 20
166.282000
 21
166.827000
  0
LINE
 10
170.864000
 11
171.900000
 20
166.827000
 21
165.400000
  0
LINE
 10
171.900000
 11
170.864000
 20
165.400000
 21
163.973000
  0
LINE
 10
170.864000
 11
169.186000
 20
163.973000
 21
164.518000
  0
ENDSEC
  0
EOF
