  0
SECTION
  2
ENTITIES
  0
LINE
 10
17.933000
 11
17.933000
 20
146.350000
 21
149.350000
  0
LINE
 10
17.933000
 11
22.933000
 20
149.350000
 21
149.350000
  0
LINE
 10
22.933000
 11
22.933000
 20
149.350000
 21
146.350000
  0
LINE
 10
22.933000
 11
17.933000
 20
146.350000
 21
146.350000
  0
LINE
 10
17.933000
 11
17.933000
 20
172.350000
 21
175.350000
  0
LINE
 10
17.933000
 11
22.933000
 20
175.350000
 21
175.350000
  0
LINE
 10
22.933000
 11
22.933000
 20
175.350000
 21
172.350000
  0
LINE
 10
22.933000
 11
17.933000
 20
172.350000
 21
172.350000
  0
LINE
 10
28.386000
 11
28.386000
 20
33.718000
 21
35.482000
  0
LINE
 10
28.386000
 11
30.064000
 20
35.482000
 21
36.027000
  0
LINE
 10
30.064000
 11
31.100000
 20
36.027000
 21
34.600000
  0
LINE
 10
31.100000
 11
30.064000
 20
34.600000
 21
33.173000
  0
LINE
 10
30.064000
 11
28.386000
 20
33.173000
 21
33.718000
  0
LINE
 10
38.667000
 11
38.667000
 20
58.709000
 21
62.959000
  0
LINE
 10
38.667000
 11
41.667000
 20
62.959000
 21
62.959000
  0
LINE
 10
41.667000
 11
41.667000
 20
62.959000
 21
63.334000
  0
LINE
 10
41.667000
 11
46.667000
 20
63.334000
 21
63.334000
  0
LINE
 10
46.667000
 11
46.667000
 20
63.334000
 21
62.959000
  0
LINE
 10
46.667000
 11
49.667000
 20
62.959000
 21
62.959000
  0
LINE
 10
49.667000
 11
49.667000
 20
62.959000
 21
58.709000
  0
LINE
 10
49.667000
 11
46.667000
 20
58.709000
 21
58.709000
  0
LINE
 10
46.667000
 11
46.667000
 20
58.709000
 21
58.334000
  0
LINE
 10
46.667000
 11
41.667000
 20
58.334000
 21
58.334000
  0
LINE
 10
41.667000
 11
41.667000
 20
58.334000
 21
58.709000
  0
LINE
 10
41.667000
 11
38.667000
 20
58.709000
 21
58.709000
  0
LINE
 10
38.667000
 11
38.667000
 20
75.375000
 21
79.625000
  0
LINE
 10
38.667000
 11
41.667000
 20
79.625000
 21
79.625000
  0
LINE
 10
41.667000
 11
41.667000
 20
79.625000
 21
80.000000
  0
LINE
 10
41.667000
 11
46.667000
 20
80.000000
 21
80.000000
  0
LINE
 10
46.667000
 11
46.667000
 20
80.000000
 21
79.625000
  0
LINE
 10
46.667000
 11
49.667000
 20
79.625000
 21
79.625000
  0
LINE
 10
49.667000
 11
49.667000
 20
79.625000
 21
75.375000
  0
LINE
 10
49.667000
 11
46.667000
 20
75.375000
 21
75.375000
  0
LINE
 10
46.667000
 11
46.667000
 20
75.375000
 21
75.000000
  0
LINE
 10
46.667000
 11
41.667000
 20
75.000000
 21
75.000000
  0
LINE
 10
41.667000
 11
41.667000
 20
75.000000
 21
75.375000
  0
LINE
 10
41.667000
 11
38.667000
 20
75.375000
 21
75.375000
  0
LINE
 10
38.667000
 11
38.667000
 20
92.042000
 21
96.292000
  0
LINE
 10
38.667000
 11
41.667000
 20
96.292000
 21
96.292000
  0
LINE
 10
41.667000
 11
41.667000
 20
96.292000
 21
96.667000
  0
LINE
 10
41.667000
 11
46.667000
 20
96.667000
 21
96.667000
  0
LINE
 10
46.667000
 11
46.667000
 20
96.667000
 21
96.292000
  0
LINE
 10
46.667000
 11
49.667000
 20
96.292000
 21
96.292000
  0
LINE
 10
49.667000
 11
49.667000
 20
96.292000
 21
92.042000
  0
LINE
 10
49.667000
 11
46.667000
 20
92.042000
 21
92.042000
  0
LINE
 10
46.667000
 11
46.667000
 20
92.042000
 21
91.667000
  0
LINE
 10
46.667000
 11
41.667000
 20
91.667000
 21
91.667000
  0
LINE
 10
41.667000
 11
41.667000
 20
91.667000
 21
92.042000
  0
LINE
 10
41.667000
 11
38.667000
 20
92.042000
 21
92.042000
  0
LINE
 10
38.667000
 11
38.667000
 20
108.709000
 21
112.959000
  0
LINE
 10
38.667000
 11
41.667000
 20
112.959000
 21
112.959000
  0
LINE
 10
41.667000
 11
41.667000
 20
112.959000
 21
113.334000
  0
LINE
 10
41.667000
 11
46.667000
 20
113.334000
 21
113.334000
  0
LINE
 10
46.667000
 11
46.667000
 20
113.334000
 21
112.959000
  0
LINE
 10
46.667000
 11
49.667000
 20
112.959000
 21
112.959000
  0
LINE
 10
49.667000
 11
49.667000
 20
112.959000
 21
108.709000
  0
LINE
 10
49.667000
 11
46.667000
 20
108.709000
 21
108.709000
  0
LINE
 10
46.667000
 11
46.667000
 20
108.709000
 21
108.334000
  0
LINE
 10
46.667000
 11
41.667000
 20
108.334000
 21
108.334000
  0
LINE
 10
41.667000
 11
41.667000
 20
108.334000
 21
108.709000
  0
LINE
 10
41.667000
 11
38.667000
 20
108.709000
 21
108.709000
  0
LINE
 10
38.667000
 11
38.667000
 20
125.375000
 21
129.625000
  0
LINE
 10
38.667000
 11
41.667000
 20
129.625000
 21
129.625000
  0
LINE
 10
41.667000
 11
41.667000
 20
129.625000
 21
130.000000
  0
LINE
 10
41.667000
 11
46.667000
 20
130.000000
 21
130.000000
  0
LINE
 10
46.667000
 11
46.667000
 20
130.000000
 21
129.625000
  0
LINE
 10
46.667000
 11
49.667000
 20
129.625000
 21
129.625000
  0
LINE
 10
49.667000
 11
49.667000
 20
129.625000
 21
125.375000
  0
LINE
 10
49.667000
 11
46.667000
 20
125.375000
 21
125.375000
  0
LINE
 10
46.667000
 11
46.667000
 20
125.375000
 21
125.000000
  0
LINE
 10
46.667000
 11
41.667000
 20
125.000000
 21
125.000000
  0
LINE
 10
41.667000
 11
41.667000
 20
125.000000
 21
125.375000
  0
LINE
 10
41.667000
 11
38.667000
 20
125.375000
 21
125.375000
  0
LINE
 10
38.667000
 11
38.667000
 20
142.042000
 21
146.292000
  0
LINE
 10
38.667000
 11
41.667000
 20
146.292000
 21
146.292000
  0
LINE
 10
41.667000
 11
41.667000
 20
146.292000
 21
146.667000
  0
LINE
 10
41.667000
 11
46.667000
 20
146.667000
 21
146.667000
  0
LINE
 10
46.667000
 11
46.667000
 20
146.667000
 21
146.292000
  0
LINE
 10
46.667000
 11
49.667000
 20
146.292000
 21
146.292000
  0
LINE
 10
49.667000
 11
49.667000
 20
146.292000
 21
142.042000
  0
LINE
 10
49.667000
 11
46.667000
 20
142.042000
 21
142.042000
  0
LINE
 10
46.667000
 11
46.667000
 20
142.042000
 21
141.667000
  0
LINE
 10
46.667000
 11
41.667000
 20
141.667000
 21
141.667000
  0
LINE
 10
41.667000
 11
41.667000
 20
141.667000
 21
142.042000
  0
LINE
 10
41.667000
 11
38.667000
 20
142.042000
 21
142.042000
  0
LINE
 10
55.334000
 11
55.334000
 20
42.042000
 21
46.292000
  0
LINE
 10
55.334000
 11
58.334000
 20
46.292000
 21
46.292000
  0
LINE
 10
58.334000
 11
58.334000
 20
46.292000
 21
46.667000
  0
LINE
 10
58.334000
 11
63.334000
 20
46.667000
 21
46.667000
  0
LINE
 10
63.334000
 11
63.334000
 20
46.667000
 21
46.292000
  0
LINE
 10
63.334000
 11
66.334000
 20
46.292000
 21
46.292000
  0
LINE
 10
66.334000
 11
66.334000
 20
46.292000
 21
42.042000
  0
LINE
 10
66.334000
 11
63.334000
 20
42.042000
 21
42.042000
  0
LINE
 10
63.334000
 11
63.334000
 20
42.042000
 21
41.667000
  0
LINE
 10
63.334000
 11
58.334000
 20
41.667000
 21
41.667000
  0
LINE
 10
58.334000
 11
58.334000
 20
41.667000
 21
42.042000
  0
LINE
 10
58.334000
 11
55.334000
 20
42.042000
 21
42.042000
  0
LINE
 10
55.334000
 11
55.334000
 20
58.709000
 21
62.959000
  0
LINE
 10
55.334000
 11
58.334000
 20
62.959000
 21
62.959000
  0
LINE
 10
58.334000
 11
58.334000
 20
62.959000
 21
63.334000
  0
LINE
 10
58.334000
 11
63.334000
 20
63.334000
 21
63.334000
  0
LINE
 10
63.334000
 11
63.334000
 20
63.334000
 21
62.959000
  0
LINE
 10
63.334000
 11
66.334000
 20
62.959000
 21
62.959000
  0
LINE
 10
66.334000
 11
66.334000
 20
62.959000
 21
58.709000
  0
LINE
 10
66.334000
 11
63.334000
 20
58.709000
 21
58.709000
  0
LINE
 10
63.334000
 11
63.334000
 20
58.709000
 21
58.334000
  0
LINE
 10
63.334000
 11
58.334000
 20
58.334000
 21
58.334000
  0
LINE
 10
58.334000
 11
58.334000
 20
58.334000
 21
58.709000
  0
LINE
 10
58.334000
 11
55.334000
 20
58.709000
 21
58.709000
  0
LINE
 10
55.334000
 11
55.334000
 20
75.375000
 21
79.625000
  0
LINE
 10
55.334000
 11
58.334000
 20
79.625000
 21
79.625000
  0
LINE
 10
58.334000
 11
58.334000
 20
79.625000
 21
80.000000
  0
LINE
 10
58.334000
 11
63.334000
 20
80.000000
 21
80.000000
  0
LINE
 10
63.334000
 11
63.334000
 20
80.000000
 21
79.625000
  0
LINE
 10
63.334000
 11
66.334000
 20
79.625000
 21
79.625000
  0
LINE
 10
66.334000
 11
66.334000
 20
79.625000
 21
75.375000
  0
LINE
 10
66.334000
 11
63.334000
 20
75.375000
 21
75.375000
  0
LINE
 10
63.334000
 11
63.334000
 20
75.375000
 21
75.000000
  0
LINE
 10
63.334000
 11
58.334000
 20
75.000000
 21
75.000000
  0
LINE
 10
58.334000
 11
58.334000
 20
75.000000
 21
75.375000
  0
LINE
 10
58.334000
 11
55.334000
 20
75.375000
 21
75.375000
  0
LINE
 10
55.334000
 11
55.334000
 20
92.042000
 21
96.292000
  0
LINE
 10
55.334000
 11
58.334000
 20
96.292000
 21
96.292000
  0
LINE
 10
58.334000
 11
58.334000
 20
96.292000
 21
96.667000
  0
LINE
 10
58.334000
 11
63.334000
 20
96.667000
 21
96.667000
  0
LINE
 10
63.334000
 11
63.334000
 20
96.667000
 21
96.292000
  0
LINE
 10
63.334000
 11
66.334000
 20
96.292000
 21
96.292000
  0
LINE
 10
66.334000
 11
66.334000
 20
96.292000
 21
92.042000
  0
LINE
 10
66.334000
 11
63.334000
 20
92.042000
 21
92.042000
  0
LINE
 10
63.334000
 11
63.334000
 20
92.042000
 21
91.667000
  0
LINE
 10
63.334000
 11
58.334000
 20
91.667000
 21
91.667000
  0
LINE
 10
58.334000
 11
58.334000
 20
91.667000
 21
92.042000
  0
LINE
 10
58.334000
 11
55.334000
 20
92.042000
 21
92.042000
  0
LINE
 10
55.334000
 11
55.334000
 20
108.709000
 21
112.959000
  0
LINE
 10
55.334000
 11
58.334000
 20
112.959000
 21
112.959000
  0
LINE
 10
58.334000
 11
58.334000
 20
112.959000
 21
113.334000
  0
LINE
 10
58.334000
 11
63.334000
 20
113.334000
 21
113.334000
  0
LINE
 10
63.334000
 11
63.334000
 20
113.334000
 21
112.959000
  0
LINE
 10
63.334000
 11
66.334000
 20
112.959000
 21
112.959000
  0
LINE
 10
66.334000
 11
66.334000
 20
112.959000
 21
108.709000
  0
LINE
 10
66.334000
 11
63.334000
 20
108.709000
 21
108.709000
  0
LINE
 10
63.334000
 11
63.334000
 20
108.709000
 21
108.334000
  0
LINE
 10
63.334000
 11
58.334000
 20
108.334000
 21
108.334000
  0
LINE
 10
58.334000
 11
58.334000
 20
108.334000
 21
108.709000
  0
LINE
 10
58.334000
 11
55.334000
 20
108.709000
 21
108.709000
  0
LINE
 10
55.334000
 11
55.334000
 20
125.375000
 21
129.625000
  0
LINE
 10
55.334000
 11
58.334000
 20
129.625000
 21
129.625000
  0
LINE
 10
58.334000
 11
58.334000
 20
129.625000
 21
130.000000
  0
LINE
 10
58.334000
 11
63.334000
 20
130.000000
 21
130.000000
  0
LINE
 10
63.334000
 11
63.334000
 20
130.000000
 21
129.625000
  0
LINE
 10
63.334000
 11
66.334000
 20
129.625000
 21
129.625000
  0
LINE
 10
66.334000
 11
66.334000
 20
129.625000
 21
125.375000
  0
LINE
 10
66.334000
 11
63.334000
 20
125.375000
 21
125.375000
  0
LINE
 10
63.334000
 11
63.334000
 20
125.375000
 21
125.000000
  0
LINE
 10
63.334000
 11
58.334000
 20
125.000000
 21
125.000000
  0
LINE
 10
58.334000
 11
58.334000
 20
125.000000
 21
125.375000
  0
LINE
 10
58.334000
 11
55.334000
 20
125.375000
 21
125.375000
  0
LINE
 10
55.334000
 11
55.334000
 20
142.042000
 21
146.292000
  0
LINE
 10
55.334000
 11
58.334000
 20
146.292000
 21
146.292000
  0
LINE
 10
58.334000
 11
58.334000
 20
146.292000
 21
146.667000
  0
LINE
 10
58.334000
 11
63.334000
 20
146.667000
 21
146.667000
  0
LINE
 10
63.334000
 11
63.334000
 20
146.667000
 21
146.292000
  0
LINE
 10
63.334000
 11
66.334000
 20
146.292000
 21
146.292000
  0
LINE
 10
66.334000
 11
66.334000
 20
146.292000
 21
142.042000
  0
LINE
 10
66.334000
 11
63.334000
 20
142.042000
 21
142.042000
  0
LINE
 10
63.334000
 11
63.334000
 20
142.042000
 21
141.667000
  0
LINE
 10
63.334000
 11
58.334000
 20
141.667000
 21
141.667000
  0
LINE
 10
58.334000
 11
58.334000
 20
141.667000
 21
142.042000
  0
LINE
 10
58.334000
 11
55.334000
 20
142.042000
 21
142.042000
  0
LINE
 10
9.600000
 11
9.600000
 20
9.600000
 21
153.350000
  0
LINE
 10
9.600000
 11
59.933000
 20
153.350000
 21
153.350000
  0
LINE
 10
59.933000
 11
59.933000
 20
153.350000
 21
158.334000
  0
LINE
 10
59.933000
 11
63.334000
 20
158.334000
 21
158.334000
  0
LINE
 10
63.334000
 11
63.334000
 20
158.334000
 21
158.709000
  0
LINE
 10
63.334000
 11
66.334000
 20
158.709000
 21
158.709000
  0
LINE
 10
66.334000
 11
66.334000
 20
158.709000
 21
162.959000
  0
LINE
 10
66.334000
 11
63.334000
 20
162.959000
 21
162.959000
  0
LINE
 10
63.334000
 11
63.334000
 20
162.959000
 21
163.334000
  0
LINE
 10
63.334000
 11
59.933000
 20
163.334000
 21
163.334000
  0
LINE
 10
59.933000
 11
59.933000
 20
163.334000
 21
168.350000
  0
LINE
 10
59.933000
 11
9.600000
 20
168.350000
 21
168.350000
  0
LINE
 10
9.600000
 11
9.600000
 20
168.350000
 21
190.400000
  0
LINE
 10
9.600000
 11
190.400000
 20
190.400000
 21
190.400000
  0
LINE
 10
190.400000
 11
190.400000
 20
190.400000
 21
9.600000
  0
LINE
 10
190.400000
 11
9.600000
 20
9.600000
 21
9.600000
  0
LINE
 10
72.000000
 11
72.000000
 20
42.042000
 21
46.292000
  0
LINE
 10
72.000000
 11
75.000000
 20
46.292000
 21
46.292000
  0
LINE
 10
75.000000
 11
75.000000
 20
46.292000
 21
46.667000
  0
LINE
 10
75.000000
 11
80.000000
 20
46.667000
 21
46.667000
  0
LINE
 10
80.000000
 11
80.000000
 20
46.667000
 21
46.292000
  0
LINE
 10
80.000000
 11
83.000000
 20
46.292000
 21
46.292000
  0
LINE
 10
83.000000
 11
83.000000
 20
46.292000
 21
42.042000
  0
LINE
 10
83.000000
 11
80.000000
 20
42.042000
 21
42.042000
  0
LINE
 10
80.000000
 11
80.000000
 20
42.042000
 21
41.667000
  0
LINE
 10
80.000000
 11
75.000000
 20
41.667000
 21
41.667000
  0
LINE
 10
75.000000
 11
75.000000
 20
41.667000
 21
42.042000
  0
LINE
 10
75.000000
 11
72.000000
 20
42.042000
 21
42.042000
  0
LINE
 10
72.000000
 11
72.000000
 20
58.709000
 21
62.959000
  0
LINE
 10
72.000000
 11
75.000000
 20
62.959000
 21
62.959000
  0
LINE
 10
75.000000
 11
75.000000
 20
62.959000
 21
63.334000
  0
LINE
 10
75.000000
 11
80.000000
 20
63.334000
 21
63.334000
  0
LINE
 10
80.000000
 11
80.000000
 20
63.334000
 21
62.959000
  0
LINE
 10
80.000000
 11
83.000000
 20
62.959000
 21
62.959000
  0
LINE
 10
83.000000
 11
83.000000
 20
62.959000
 21
58.709000
  0
LINE
 10
83.000000
 11
80.000000
 20
58.709000
 21
58.709000
  0
LINE
 10
80.000000
 11
80.000000
 20
58.709000
 21
58.334000
  0
LINE
 10
80.000000
 11
75.000000
 20
58.334000
 21
58.334000
  0
LINE
 10
75.000000
 11
75.000000
 20
58.334000
 21
58.709000
  0
LINE
 10
75.000000
 11
72.000000
 20
58.709000
 21
58.709000
  0
LINE
 10
72.000000
 11
72.000000
 20
75.375000
 21
79.625000
  0
LINE
 10
72.000000
 11
75.000000
 20
79.625000
 21
79.625000
  0
LINE
 10
75.000000
 11
75.000000
 20
79.625000
 21
80.000000
  0
LINE
 10
75.000000
 11
80.000000
 20
80.000000
 21
80.000000
  0
LINE
 10
80.000000
 11
80.000000
 20
80.000000
 21
79.625000
  0
LINE
 10
80.000000
 11
83.000000
 20
79.625000
 21
79.625000
  0
LINE
 10
83.000000
 11
83.000000
 20
79.625000
 21
75.375000
  0
LINE
 10
83.000000
 11
80.000000
 20
75.375000
 21
75.375000
  0
LINE
 10
80.000000
 11
80.000000
 20
75.375000
 21
75.000000
  0
LINE
 10
80.000000
 11
75.000000
 20
75.000000
 21
75.000000
  0
LINE
 10
75.000000
 11
75.000000
 20
75.000000
 21
75.375000
  0
LINE
 10
75.000000
 11
72.000000
 20
75.375000
 21
75.375000
  0
LINE
 10
72.000000
 11
72.000000
 20
92.042000
 21
96.292000
  0
LINE
 10
72.000000
 11
75.000000
 20
96.292000
 21
96.292000
  0
LINE
 10
75.000000
 11
75.000000
 20
96.292000
 21
96.667000
  0
LINE
 10
75.000000
 11
80.000000
 20
96.667000
 21
96.667000
  0
LINE
 10
80.000000
 11
80.000000
 20
96.667000
 21
96.292000
  0
LINE
 10
80.000000
 11
83.000000
 20
96.292000
 21
96.292000
  0
LINE
 10
83.000000
 11
83.000000
 20
96.292000
 21
92.042000
  0
LINE
 10
83.000000
 11
80.000000
 20
92.042000
 21
92.042000
  0
LINE
 10
80.000000
 11
80.000000
 20
92.042000
 21
91.667000
  0
LINE
 10
80.000000
 11
75.000000
 20
91.667000
 21
91.667000
  0
LINE
 10
75.000000
 11
75.000000
 20
91.667000
 21
92.042000
  0
LINE
 10
75.000000
 11
72.000000
 20
92.042000
 21
92.042000
  0
LINE
 10
72.000000
 11
72.000000
 20
108.709000
 21
112.959000
  0
LINE
 10
72.000000
 11
75.000000
 20
112.959000
 21
112.959000
  0
LINE
 10
75.000000
 11
75.000000
 20
112.959000
 21
113.334000
  0
LINE
 10
75.000000
 11
80.000000
 20
113.334000
 21
113.334000
  0
LINE
 10
80.000000
 11
80.000000
 20
113.334000
 21
112.959000
  0
LINE
 10
80.000000
 11
83.000000
 20
112.959000
 21
112.959000
  0
LINE
 10
83.000000
 11
83.000000
 20
112.959000
 21
108.709000
  0
LINE
 10
83.000000
 11
80.000000
 20
108.709000
 21
108.709000
  0
LINE
 10
80.000000
 11
80.000000
 20
108.709000
 21
108.334000
  0
LINE
 10
80.000000
 11
75.000000
 20
108.334000
 21
108.334000
  0
LINE
 10
75.000000
 11
75.000000
 20
108.334000
 21
108.709000
  0
LINE
 10
75.000000
 11
72.000000
 20
108.709000
 21
108.709000
  0
LINE
 10
72.000000
 11
72.000000
 20
125.375000
 21
129.625000
  0
LINE
 10
72.000000
 11
75.000000
 20
129.625000
 21
129.625000
  0
LINE
 10
75.000000
 11
75.000000
 20
129.625000
 21
130.000000
  0
LINE
 10
75.000000
 11
80.000000
 20
130.000000
 21
130.000000
  0
LINE
 10
80.000000
 11
80.000000
 20
130.000000
 21
129.625000
  0
LINE
 10
80.000000
 11
83.000000
 20
129.625000
 21
129.625000
  0
LINE
 10
83.000000
 11
83.000000
 20
129.625000
 21
125.375000
  0
LINE
 10
83.000000
 11
80.000000
 20
125.375000
 21
125.375000
  0
LINE
 10
80.000000
 11
80.000000
 20
125.375000
 21
125.000000
  0
LINE
 10
80.000000
 11
75.000000
 20
125.000000
 21
125.000000
  0
LINE
 10
75.000000
 11
75.000000
 20
125.000000
 21
125.375000
  0
LINE
 10
75.000000
 11
72.000000
 20
125.375000
 21
125.375000
  0
LINE
 10
72.000000
 11
72.000000
 20
142.042000
 21
146.292000
  0
LINE
 10
72.000000
 11
75.000000
 20
146.292000
 21
146.292000
  0
LINE
 10
75.000000
 11
75.000000
 20
146.292000
 21
146.667000
  0
LINE
 10
75.000000
 11
80.000000
 20
146.667000
 21
146.667000
  0
LINE
 10
80.000000
 11
80.000000
 20
146.667000
 21
146.292000
  0
LINE
 10
80.000000
 11
83.000000
 20
146.292000
 21
146.292000
  0
LINE
 10
83.000000
 11
83.000000
 20
146.292000
 21
142.042000
  0
LINE
 10
83.000000
 11
80.000000
 20
142.042000
 21
142.042000
  0
LINE
 10
80.000000
 11
80.000000
 20
142.042000
 21
141.667000
  0
LINE
 10
80.000000
 11
75.000000
 20
141.667000
 21
141.667000
  0
LINE
 10
75.000000
 11
75.000000
 20
141.667000
 21
142.042000
  0
LINE
 10
75.000000
 11
72.000000
 20
142.042000
 21
142.042000
  0
LINE
 10
72.000000
 11
72.000000
 20
158.709000
 21
162.959000
  0
LINE
 10
72.000000
 11
75.000000
 20
162.959000
 21
162.959000
  0
LINE
 10
75.000000
 11
75.000000
 20
162.959000
 21
163.334000
  0
LINE
 10
75.000000
 11
80.000000
 20
163.334000
 21
163.334000
  0
LINE
 10
80.000000
 11
80.000000
 20
163.334000
 21
162.959000
  0
LINE
 10
80.000000
 11
83.000000
 20
162.959000
 21
162.959000
  0
LINE
 10
83.000000
 11
83.000000
 20
162.959000
 21
158.709000
  0
LINE
 10
83.000000
 11
80.000000
 20
158.709000
 21
158.709000
  0
LINE
 10
80.000000
 11
80.000000
 20
158.709000
 21
158.334000
  0
LINE
 10
80.000000
 11
75.000000
 20
158.334000
 21
158.334000
  0
LINE
 10
75.000000
 11
75.000000
 20
158.334000
 21
158.709000
  0
LINE
 10
75.000000
 11
72.000000
 20
158.709000
 21
158.709000
  0
LINE
 10
88.667000
 11
88.667000
 20
42.042000
 21
46.292000
  0
LINE
 10
88.667000
 11
91.667000
 20
46.292000
 21
46.292000
  0
LINE
 10
91.667000
 11
91.667000
 20
46.292000
 21
46.667000
  0
LINE
 10
91.667000
 11
96.667000
 20
46.667000
 21
46.667000
  0
LINE
 10
96.667000
 11
96.667000
 20
46.667000
 21
46.292000
  0
LINE
 10
96.667000
 11
99.667000
 20
46.292000
 21
46.292000
  0
LINE
 10
99.667000
 11
99.667000
 20
46.292000
 21
42.042000
  0
LINE
 10
99.667000
 11
96.667000
 20
42.042000
 21
42.042000
  0
LINE
 10
96.667000
 11
96.667000
 20
42.042000
 21
41.667000
  0
LINE
 10
96.667000
 11
91.667000
 20
41.667000
 21
41.667000
  0
LINE
 10
91.667000
 11
91.667000
 20
41.667000
 21
42.042000
  0
LINE
 10
91.667000
 11
88.667000
 20
42.042000
 21
42.042000
  0
LINE
 10
88.667000
 11
88.667000
 20
58.709000
 21
62.959000
  0
LINE
 10
88.667000
 11
91.667000
 20
62.959000
 21
62.959000
  0
LINE
 10
91.667000
 11
91.667000
 20
62.959000
 21
63.334000
  0
LINE
 10
91.667000
 11
96.667000
 20
63.334000
 21
63.334000
  0
LINE
 10
96.667000
 11
96.667000
 20
63.334000
 21
62.959000
  0
LINE
 10
96.667000
 11
99.667000
 20
62.959000
 21
62.959000
  0
LINE
 10
99.667000
 11
99.667000
 20
62.959000
 21
58.709000
  0
LINE
 10
99.667000
 11
96.667000
 20
58.709000
 21
58.709000
  0
LINE
 10
96.667000
 11
96.667000
 20
58.709000
 21
58.334000
  0
LINE
 10
96.667000
 11
91.667000
 20
58.334000
 21
58.334000
  0
LINE
 10
91.667000
 11
91.667000
 20
58.334000
 21
58.709000
  0
LINE
 10
91.667000
 11
88.667000
 20
58.709000
 21
58.709000
  0
LINE
 10
88.667000
 11
88.667000
 20
75.375000
 21
79.625000
  0
LINE
 10
88.667000
 11
91.667000
 20
79.625000
 21
79.625000
  0
LINE
 10
91.667000
 11
91.667000
 20
79.625000
 21
80.000000
  0
LINE
 10
91.667000
 11
96.667000
 20
80.000000
 21
80.000000
  0
LINE
 10
96.667000
 11
96.667000
 20
80.000000
 21
79.625000
  0
LINE
 10
96.667000
 11
99.667000
 20
79.625000
 21
79.625000
  0
LINE
 10
99.667000
 11
99.667000
 20
79.625000
 21
75.375000
  0
LINE
 10
99.667000
 11
96.667000
 20
75.375000
 21
75.375000
  0
LINE
 10
96.667000
 11
96.667000
 20
75.375000
 21
75.000000
  0
LINE
 10
96.667000
 11
91.667000
 20
75.000000
 21
75.000000
  0
LINE
 10
91.667000
 11
91.667000
 20
75.000000
 21
75.375000
  0
LINE
 10
91.667000
 11
88.667000
 20
75.375000
 21
75.375000
  0
LINE
 10
88.667000
 11
88.667000
 20
92.042000
 21
96.292000
  0
LINE
 10
88.667000
 11
91.667000
 20
96.292000
 21
96.292000
  0
LINE
 10
91.667000
 11
91.667000
 20
96.292000
 21
96.667000
  0
LINE
 10
91.667000
 11
96.667000
 20
96.667000
 21
96.667000
  0
LINE
 10
96.667000
 11
96.667000
 20
96.667000
 21
96.292000
  0
LINE
 10
96.667000
 11
99.667000
 20
96.292000
 21
96.292000
  0
LINE
 10
99.667000
 11
99.667000
 20
96.292000
 21
92.042000
  0
LINE
 10
99.667000
 11
96.667000
 20
92.042000
 21
92.042000
  0
LINE
 10
96.667000
 11
96.667000
 20
92.042000
 21
91.667000
  0
LINE
 10
96.667000
 11
91.667000
 20
91.667000
 21
91.667000
  0
LINE
 10
91.667000
 11
91.667000
 20
91.667000
 21
92.042000
  0
LINE
 10
91.667000
 11
88.667000
 20
92.042000
 21
92.042000
  0
LINE
 10
88.667000
 11
88.667000
 20
108.709000
 21
112.959000
  0
LINE
 10
88.667000
 11
91.667000
 20
112.959000
 21
112.959000
  0
LINE
 10
91.667000
 11
91.667000
 20
112.959000
 21
113.334000
  0
LINE
 10
91.667000
 11
96.667000
 20
113.334000
 21
113.334000
  0
LINE
 10
96.667000
 11
96.667000
 20
113.334000
 21
112.959000
  0
LINE
 10
96.667000
 11
99.667000
 20
112.959000
 21
112.959000
  0
LINE
 10
99.667000
 11
99.667000
 20
112.959000
 21
108.709000
  0
LINE
 10
99.667000
 11
96.667000
 20
108.709000
 21
108.709000
  0
LINE
 10
96.667000
 11
96.667000
 20
108.709000
 21
108.334000
  0
LINE
 10
96.667000
 11
91.667000
 20
108.334000
 21
108.334000
  0
LINE
 10
91.667000
 11
91.667000
 20
108.334000
 21
108.709000
  0
LINE
 10
91.667000
 11
88.667000
 20
108.709000
 21
108.709000
  0
LINE
 10
88.667000
 11
88.667000
 20
125.375000
 21
129.625000
  0
LINE
 10
88.667000
 11
91.667000
 20
129.625000
 21
129.625000
  0
LINE
 10
91.667000
 11
91.667000
 20
129.625000
 21
130.000000
  0
LINE
 10
91.667000
 11
96.667000
 20
130.000000
 21
130.000000
  0
LINE
 10
96.667000
 11
96.667000
 20
130.000000
 21
129.625000
  0
LINE
 10
96.667000
 11
99.667000
 20
129.625000
 21
129.625000
  0
LINE
 10
99.667000
 11
99.667000
 20
129.625000
 21
125.375000
  0
LINE
 10
99.667000
 11
96.667000
 20
125.375000
 21
125.375000
  0
LINE
 10
96.667000
 11
96.667000
 20
125.375000
 21
125.000000
  0
LINE
 10
96.667000
 11
91.667000
 20
125.000000
 21
125.000000
  0
LINE
 10
91.667000
 11
91.667000
 20
125.000000
 21
125.375000
  0
LINE
 10
91.667000
 11
88.667000
 20
125.375000
 21
125.375000
  0
LINE
 10
88.667000
 11
88.667000
 20
142.042000
 21
146.292000
  0
LINE
 10
88.667000
 11
91.667000
 20
146.292000
 21
146.292000
  0
LINE
 10
91.667000
 11
91.667000
 20
146.292000
 21
146.667000
  0
LINE
 10
91.667000
 11
96.667000
 20
146.667000
 21
146.667000
  0
LINE
 10
96.667000
 11
96.667000
 20
146.667000
 21
146.292000
  0
LINE
 10
96.667000
 11
99.667000
 20
146.292000
 21
146.292000
  0
LINE
 10
99.667000
 11
99.667000
 20
146.292000
 21
142.042000
  0
LINE
 10
99.667000
 11
96.667000
 20
142.042000
 21
142.042000
  0
LINE
 10
96.667000
 11
96.667000
 20
142.042000
 21
141.667000
  0
LINE
 10
96.667000
 11
91.667000
 20
141.667000
 21
141.667000
  0
LINE
 10
91.667000
 11
91.667000
 20
141.667000
 21
142.042000
  0
LINE
 10
91.667000
 11
88.667000
 20
142.042000
 21
142.042000
  0
LINE
 10
88.667000
 11
88.667000
 20
158.709000
 21
162.959000
  0
LINE
 10
88.667000
 11
91.667000
 20
162.959000
 21
162.959000
  0
LINE
 10
91.667000
 11
91.667000
 20
162.959000
 21
163.334000
  0
LINE
 10
91.667000
 11
96.667000
 20
163.334000
 21
163.334000
  0
LINE
 10
96.667000
 11
96.667000
 20
163.334000
 21
162.959000
  0
LINE
 10
96.667000
 11
99.667000
 20
162.959000
 21
162.959000
  0
LINE
 10
99.667000
 11
99.667000
 20
162.959000
 21
158.709000
  0
LINE
 10
99.667000
 11
96.667000
 20
158.709000
 21
158.709000
  0
LINE
 10
96.667000
 11
96.667000
 20
158.709000
 21
158.334000
  0
LINE
 10
96.667000
 11
91.667000
 20
158.334000
 21
158.334000
  0
LINE
 10
91.667000
 11
91.667000
 20
158.334000
 21
158.709000
  0
LINE
 10
91.667000
 11
88.667000
 20
158.709000
 21
158.709000
  0
LINE
 10
105.334000
 11
105.334000
 20
42.042000
 21
46.292000
  0
LINE
 10
105.334000
 11
108.334000
 20
46.292000
 21
46.292000
  0
LINE
 10
108.334000
 11
108.334000
 20
46.292000
 21
46.667000
  0
LINE
 10
108.334000
 11
113.334000
 20
46.667000
 21
46.667000
  0
LINE
 10
113.334000
 11
113.334000
 20
46.667000
 21
46.292000
  0
LINE
 10
113.334000
 11
116.334000
 20
46.292000
 21
46.292000
  0
LINE
 10
116.334000
 11
116.334000
 20
46.292000
 21
42.042000
  0
LINE
 10
116.334000
 11
113.334000
 20
42.042000
 21
42.042000
  0
LINE
 10
113.334000
 11
113.334000
 20
42.042000
 21
41.667000
  0
LINE
 10
113.334000
 11
108.334000
 20
41.667000
 21
41.667000
  0
LINE
 10
108.334000
 11
108.334000
 20
41.667000
 21
42.042000
  0
LINE
 10
108.334000
 11
105.334000
 20
42.042000
 21
42.042000
  0
LINE
 10
105.334000
 11
105.334000
 20
58.709000
 21
62.959000
  0
LINE
 10
105.334000
 11
108.334000
 20
62.959000
 21
62.959000
  0
LINE
 10
108.334000
 11
108.334000
 20
62.959000
 21
63.334000
  0
LINE
 10
108.334000
 11
113.334000
 20
63.334000
 21
63.334000
  0
LINE
 10
113.334000
 11
113.334000
 20
63.334000
 21
62.959000
  0
LINE
 10
113.334000
 11
116.334000
 20
62.959000
 21
62.959000
  0
LINE
 10
116.334000
 11
116.334000
 20
62.959000
 21
58.709000
  0
LINE
 10
116.334000
 11
113.334000
 20
58.709000
 21
58.709000
  0
LINE
 10
113.334000
 11
113.334000
 20
58.709000
 21
58.334000
  0
LINE
 10
113.334000
 11
108.334000
 20
58.334000
 21
58.334000
  0
LINE
 10
108.334000
 11
108.334000
 20
58.334000
 21
58.709000
  0
LINE
 10
108.334000
 11
105.334000
 20
58.709000
 21
58.709000
  0
LINE
 10
105.334000
 11
105.334000
 20
75.375000
 21
79.625000
  0
LINE
 10
105.334000
 11
108.334000
 20
79.625000
 21
79.625000
  0
LINE
 10
108.334000
 11
108.334000
 20
79.625000
 21
80.000000
  0
LINE
 10
108.334000
 11
113.334000
 20
80.000000
 21
80.000000
  0
LINE
 10
113.334000
 11
113.334000
 20
80.000000
 21
79.625000
  0
LINE
 10
113.334000
 11
116.334000
 20
79.625000
 21
79.625000
  0
LINE
 10
116.334000
 11
116.334000
 20
79.625000
 21
75.375000
  0
LINE
 10
116.334000
 11
113.334000
 20
75.375000
 21
75.375000
  0
LINE
 10
113.334000
 11
113.334000
 20
75.375000
 21
75.000000
  0
LINE
 10
113.334000
 11
108.334000
 20
75.000000
 21
75.000000
  0
LINE
 10
108.334000
 11
108.334000
 20
75.000000
 21
75.375000
  0
LINE
 10
108.334000
 11
105.334000
 20
75.375000
 21
75.375000
  0
LINE
 10
105.334000
 11
105.334000
 20
92.042000
 21
96.292000
  0
LINE
 10
105.334000
 11
108.334000
 20
96.292000
 21
96.292000
  0
LINE
 10
108.334000
 11
108.334000
 20
96.292000
 21
96.667000
  0
LINE
 10
108.334000
 11
113.334000
 20
96.667000
 21
96.667000
  0
LINE
 10
113.334000
 11
113.334000
 20
96.667000
 21
96.292000
  0
LINE
 10
113.334000
 11
116.334000
 20
96.292000
 21
96.292000
  0
LINE
 10
116.334000
 11
116.334000
 20
96.292000
 21
92.042000
  0
LINE
 10
116.334000
 11
113.334000
 20
92.042000
 21
92.042000
  0
LINE
 10
113.334000
 11
113.334000
 20
92.042000
 21
91.667000
  0
LINE
 10
113.334000
 11
108.334000
 20
91.667000
 21
91.667000
  0
LINE
 10
108.334000
 11
108.334000
 20
91.667000
 21
92.042000
  0
LINE
 10
108.334000
 11
105.334000
 20
92.042000
 21
92.042000
  0
LINE
 10
105.334000
 11
105.334000
 20
108.709000
 21
112.959000
  0
LINE
 10
105.334000
 11
108.334000
 20
112.959000
 21
112.959000
  0
LINE
 10
108.334000
 11
108.334000
 20
112.959000
 21
113.334000
  0
LINE
 10
108.334000
 11
113.334000
 20
113.334000
 21
113.334000
  0
LINE
 10
113.334000
 11
113.334000
 20
113.334000
 21
112.959000
  0
LINE
 10
113.334000
 11
116.334000
 20
112.959000
 21
112.959000
  0
LINE
 10
116.334000
 11
116.334000
 20
112.959000
 21
108.709000
  0
LINE
 10
116.334000
 11
113.334000
 20
108.709000
 21
108.709000
  0
LINE
 10
113.334000
 11
113.334000
 20
108.709000
 21
108.334000
  0
LINE
 10
113.334000
 11
108.334000
 20
108.334000
 21
108.334000
  0
LINE
 10
108.334000
 11
108.334000
 20
108.334000
 21
108.709000
  0
LINE
 10
108.334000
 11
105.334000
 20
108.709000
 21
108.709000
  0
LINE
 10
105.334000
 11
105.334000
 20
125.375000
 21
129.625000
  0
LINE
 10
105.334000
 11
108.334000
 20
129.625000
 21
129.625000
  0
LINE
 10
108.334000
 11
108.334000
 20
129.625000
 21
130.000000
  0
LINE
 10
108.334000
 11
113.334000
 20
130.000000
 21
130.000000
  0
LINE
 10
113.334000
 11
113.334000
 20
130.000000
 21
129.625000
  0
LINE
 10
113.334000
 11
116.334000
 20
129.625000
 21
129.625000
  0
LINE
 10
116.334000
 11
116.334000
 20
129.625000
 21
125.375000
  0
LINE
 10
116.334000
 11
113.334000
 20
125.375000
 21
125.375000
  0
LINE
 10
113.334000
 11
113.334000
 20
125.375000
 21
125.000000
  0
LINE
 10
113.334000
 11
108.334000
 20
125.000000
 21
125.000000
  0
LINE
 10
108.334000
 11
108.334000
 20
125.000000
 21
125.375000
  0
LINE
 10
108.334000
 11
105.334000
 20
125.375000
 21
125.375000
  0
LINE
 10
105.334000
 11
105.334000
 20
142.042000
 21
146.292000
  0
LINE
 10
105.334000
 11
108.334000
 20
146.292000
 21
146.292000
  0
LINE
 10
108.334000
 11
108.334000
 20
146.292000
 21
146.667000
  0
LINE
 10
108.334000
 11
113.334000
 20
146.667000
 21
146.667000
  0
LINE
 10
113.334000
 11
113.334000
 20
146.667000
 21
146.292000
  0
LINE
 10
113.334000
 11
116.334000
 20
146.292000
 21
146.292000
  0
LINE
 10
116.334000
 11
116.334000
 20
146.292000
 21
142.042000
  0
LINE
 10
116.334000
 11
113.334000
 20
142.042000
 21
142.042000
  0
LINE
 10
113.334000
 11
113.334000
 20
142.042000
 21
141.667000
  0
LINE
 10
113.334000
 11
108.334000
 20
141.667000
 21
141.667000
  0
LINE
 10
108.334000
 11
108.334000
 20
141.667000
 21
142.042000
  0
LINE
 10
108.334000
 11
105.334000
 20
142.042000
 21
142.042000
  0
LINE
 10
105.334000
 11
105.334000
 20
158.709000
 21
162.959000
  0
LINE
 10
105.334000
 11
108.334000
 20
162.959000
 21
162.959000
  0
LINE
 10
108.334000
 11
108.334000
 20
162.959000
 21
163.334000
  0
LINE
 10
108.334000
 11
113.334000
 20
163.334000
 21
163.334000
  0
LINE
 10
113.334000
 11
113.334000
 20
163.334000
 21
162.959000
  0
LINE
 10
113.334000
 11
116.334000
 20
162.959000
 21
162.959000
  0
LINE
 10
116.334000
 11
116.334000
 20
162.959000
 21
158.709000
  0
LINE
 10
116.334000
 11
113.334000
 20
158.709000
 21
158.709000
  0
LINE
 10
113.334000
 11
113.334000
 20
158.709000
 21
158.334000
  0
LINE
 10
113.334000
 11
108.334000
 20
158.334000
 21
158.334000
  0
LINE
 10
108.334000
 11
108.334000
 20
158.334000
 21
158.709000
  0
LINE
 10
108.334000
 11
105.334000
 20
158.709000
 21
158.709000
  0
LINE
 10
122.000000
 11
122.000000
 20
42.042000
 21
46.292000
  0
LINE
 10
122.000000
 11
125.000000
 20
46.292000
 21
46.292000
  0
LINE
 10
125.000000
 11
125.000000
 20
46.292000
 21
46.667000
  0
LINE
 10
125.000000
 11
130.000000
 20
46.667000
 21
46.667000
  0
LINE
 10
130.000000
 11
130.000000
 20
46.667000
 21
46.292000
  0
LINE
 10
130.000000
 11
133.000000
 20
46.292000
 21
46.292000
  0
LINE
 10
133.000000
 11
133.000000
 20
46.292000
 21
42.042000
  0
LINE
 10
133.000000
 11
130.000000
 20
42.042000
 21
42.042000
  0
LINE
 10
130.000000
 11
130.000000
 20
42.042000
 21
41.667000
  0
LINE
 10
130.000000
 11
125.000000
 20
41.667000
 21
41.667000
  0
LINE
 10
125.000000
 11
125.000000
 20
41.667000
 21
42.042000
  0
LINE
 10
125.000000
 11
122.000000
 20
42.042000
 21
42.042000
  0
LINE
 10
122.000000
 11
122.000000
 20
58.709000
 21
62.959000
  0
LINE
 10
122.000000
 11
125.000000
 20
62.959000
 21
62.959000
  0
LINE
 10
125.000000
 11
125.000000
 20
62.959000
 21
63.334000
  0
LINE
 10
125.000000
 11
130.000000
 20
63.334000
 21
63.334000
  0
LINE
 10
130.000000
 11
130.000000
 20
63.334000
 21
62.959000
  0
LINE
 10
130.000000
 11
133.000000
 20
62.959000
 21
62.959000
  0
LINE
 10
133.000000
 11
133.000000
 20
62.959000
 21
58.709000
  0
LINE
 10
133.000000
 11
130.000000
 20
58.709000
 21
58.709000
  0
LINE
 10
130.000000
 11
130.000000
 20
58.709000
 21
58.334000
  0
LINE
 10
130.000000
 11
125.000000
 20
58.334000
 21
58.334000
  0
LINE
 10
125.000000
 11
125.000000
 20
58.334000
 21
58.709000
  0
LINE
 10
125.000000
 11
122.000000
 20
58.709000
 21
58.709000
  0
LINE
 10
122.000000
 11
122.000000
 20
75.375000
 21
79.625000
  0
LINE
 10
122.000000
 11
125.000000
 20
79.625000
 21
79.625000
  0
LINE
 10
125.000000
 11
125.000000
 20
79.625000
 21
80.000000
  0
LINE
 10
125.000000
 11
130.000000
 20
80.000000
 21
80.000000
  0
LINE
 10
130.000000
 11
130.000000
 20
80.000000
 21
79.625000
  0
LINE
 10
130.000000
 11
133.000000
 20
79.625000
 21
79.625000
  0
LINE
 10
133.000000
 11
133.000000
 20
79.625000
 21
75.375000
  0
LINE
 10
133.000000
 11
130.000000
 20
75.375000
 21
75.375000
  0
LINE
 10
130.000000
 11
130.000000
 20
75.375000
 21
75.000000
  0
LINE
 10
130.000000
 11
125.000000
 20
75.000000
 21
75.000000
  0
LINE
 10
125.000000
 11
125.000000
 20
75.000000
 21
75.375000
  0
LINE
 10
125.000000
 11
122.000000
 20
75.375000
 21
75.375000
  0
LINE
 10
122.000000
 11
122.000000
 20
92.042000
 21
96.292000
  0
LINE
 10
122.000000
 11
125.000000
 20
96.292000
 21
96.292000
  0
LINE
 10
125.000000
 11
125.000000
 20
96.292000
 21
96.667000
  0
LINE
 10
125.000000
 11
130.000000
 20
96.667000
 21
96.667000
  0
LINE
 10
130.000000
 11
130.000000
 20
96.667000
 21
96.292000
  0
LINE
 10
130.000000
 11
133.000000
 20
96.292000
 21
96.292000
  0
LINE
 10
133.000000
 11
133.000000
 20
96.292000
 21
92.042000
  0
LINE
 10
133.000000
 11
130.000000
 20
92.042000
 21
92.042000
  0
LINE
 10
130.000000
 11
130.000000
 20
92.042000
 21
91.667000
  0
LINE
 10
130.000000
 11
125.000000
 20
91.667000
 21
91.667000
  0
LINE
 10
125.000000
 11
125.000000
 20
91.667000
 21
92.042000
  0
LINE
 10
125.000000
 11
122.000000
 20
92.042000
 21
92.042000
  0
LINE
 10
122.000000
 11
122.000000
 20
108.709000
 21
112.959000
  0
LINE
 10
122.000000
 11
125.000000
 20
112.959000
 21
112.959000
  0
LINE
 10
125.000000
 11
125.000000
 20
112.959000
 21
113.334000
  0
LINE
 10
125.000000
 11
130.000000
 20
113.334000
 21
113.334000
  0
LINE
 10
130.000000
 11
130.000000
 20
113.334000
 21
112.959000
  0
LINE
 10
130.000000
 11
133.000000
 20
112.959000
 21
112.959000
  0
LINE
 10
133.000000
 11
133.000000
 20
112.959000
 21
108.709000
  0
LINE
 10
133.000000
 11
130.000000
 20
108.709000
 21
108.709000
  0
LINE
 10
130.000000
 11
130.000000
 20
108.709000
 21
108.334000
  0
LINE
 10
130.000000
 11
125.000000
 20
108.334000
 21
108.334000
  0
LINE
 10
125.000000
 11
125.000000
 20
108.334000
 21
108.709000
  0
LINE
 10
125.000000
 11
122.000000
 20
108.709000
 21
108.709000
  0
LINE
 10
122.000000
 11
122.000000
 20
125.375000
 21
129.625000
  0
LINE
 10
122.000000
 11
125.000000
 20
129.625000
 21
129.625000
  0
LINE
 10
125.000000
 11
125.000000
 20
129.625000
 21
130.000000
  0
LINE
 10
125.000000
 11
130.000000
 20
130.000000
 21
130.000000
  0
LINE
 10
130.000000
 11
130.000000
 20
130.000000
 21
129.625000
  0
LINE
 10
130.000000
 11
133.000000
 20
129.625000
 21
129.625000
  0
LINE
 10
133.000000
 11
133.000000
 20
129.625000
 21
125.375000
  0
LINE
 10
133.000000
 11
130.000000
 20
125.375000
 21
125.375000
  0
LINE
 10
130.000000
 11
130.000000
 20
125.375000
 21
125.000000
  0
LINE
 10
130.000000
 11
125.000000
 20
125.000000
 21
125.000000
  0
LINE
 10
125.000000
 11
125.000000
 20
125.000000
 21
125.375000
  0
LINE
 10
125.000000
 11
122.000000
 20
125.375000
 21
125.375000
  0
LINE
 10
122.000000
 11
122.000000
 20
142.042000
 21
146.292000
  0
LINE
 10
122.000000
 11
125.000000
 20
146.292000
 21
146.292000
  0
LINE
 10
125.000000
 11
125.000000
 20
146.292000
 21
146.667000
  0
LINE
 10
125.000000
 11
130.000000
 20
146.667000
 21
146.667000
  0
LINE
 10
130.000000
 11
130.000000
 20
146.667000
 21
146.292000
  0
LINE
 10
130.000000
 11
133.000000
 20
146.292000
 21
146.292000
  0
LINE
 10
133.000000
 11
133.000000
 20
146.292000
 21
142.042000
  0
LINE
 10
133.000000
 11
130.000000
 20
142.042000
 21
142.042000
  0
LINE
 10
130.000000
 11
130.000000
 20
142.042000
 21
141.667000
  0
LINE
 10
130.000000
 11
125.000000
 20
141.667000
 21
141.667000
  0
LINE
 10
125.000000
 11
125.000000
 20
141.667000
 21
142.042000
  0
LINE
 10
125.000000
 11
122.000000
 20
142.042000
 21
142.042000
  0
LINE
 10
122.000000
 11
122.000000
 20
158.709000
 21
162.959000
  0
LINE
 10
122.000000
 11
125.000000
 20
162.959000
 21
162.959000
  0
LINE
 10
125.000000
 11
125.000000
 20
162.959000
 21
163.334000
  0
LINE
 10
125.000000
 11
130.000000
 20
163.334000
 21
163.334000
  0
LINE
 10
130.000000
 11
130.000000
 20
163.334000
 21
162.959000
  0
LINE
 10
130.000000
 11
133.000000
 20
162.959000
 21
162.959000
  0
LINE
 10
133.000000
 11
133.000000
 20
162.959000
 21
158.709000
  0
LINE
 10
133.000000
 11
130.000000
 20
158.709000
 21
158.709000
  0
LINE
 10
130.000000
 11
130.000000
 20
158.709000
 21
158.334000
  0
LINE
 10
130.000000
 11
125.000000
 20
158.334000
 21
158.334000
  0
LINE
 10
125.000000
 11
125.000000
 20
158.334000
 21
158.709000
  0
LINE
 10
125.000000
 11
122.000000
 20
158.709000
 21
158.709000
  0
LINE
 10
138.667000
 11
138.667000
 20
42.042000
 21
46.292000
  0
LINE
 10
138.667000
 11
141.667000
 20
46.292000
 21
46.292000
  0
LINE
 10
141.667000
 11
141.667000
 20
46.292000
 21
46.667000
  0
LINE
 10
141.667000
 11
146.667000
 20
46.667000
 21
46.667000
  0
LINE
 10
146.667000
 11
146.667000
 20
46.667000
 21
46.292000
  0
LINE
 10
146.667000
 11
149.667000
 20
46.292000
 21
46.292000
  0
LINE
 10
149.667000
 11
149.667000
 20
46.292000
 21
42.042000
  0
LINE
 10
149.667000
 11
146.667000
 20
42.042000
 21
42.042000
  0
LINE
 10
146.667000
 11
146.667000
 20
42.042000
 21
41.667000
  0
LINE
 10
146.667000
 11
141.667000
 20
41.667000
 21
41.667000
  0
LINE
 10
141.667000
 11
141.667000
 20
41.667000
 21
42.042000
  0
LINE
 10
141.667000
 11
138.667000
 20
42.042000
 21
42.042000
  0
LINE
 10
138.667000
 11
138.667000
 20
58.709000
 21
62.959000
  0
LINE
 10
138.667000
 11
141.667000
 20
62.959000
 21
62.959000
  0
LINE
 10
141.667000
 11
141.667000
 20
62.959000
 21
63.334000
  0
LINE
 10
141.667000
 11
146.667000
 20
63.334000
 21
63.334000
  0
LINE
 10
146.667000
 11
146.667000
 20
63.334000
 21
62.959000
  0
LINE
 10
146.667000
 11
149.667000
 20
62.959000
 21
62.959000
  0
LINE
 10
149.667000
 11
149.667000
 20
62.959000
 21
58.709000
  0
LINE
 10
149.667000
 11
146.667000
 20
58.709000
 21
58.709000
  0
LINE
 10
146.667000
 11
146.667000
 20
58.709000
 21
58.334000
  0
LINE
 10
146.667000
 11
141.667000
 20
58.334000
 21
58.334000
  0
LINE
 10
141.667000
 11
141.667000
 20
58.334000
 21
58.709000
  0
LINE
 10
141.667000
 11
138.667000
 20
58.709000
 21
58.709000
  0
LINE
 10
138.667000
 11
138.667000
 20
75.375000
 21
79.625000
  0
LINE
 10
138.667000
 11
141.667000
 20
79.625000
 21
79.625000
  0
LINE
 10
141.667000
 11
141.667000
 20
79.625000
 21
80.000000
  0
LINE
 10
141.667000
 11
146.667000
 20
80.000000
 21
80.000000
  0
LINE
 10
146.667000
 11
146.667000
 20
80.000000
 21
79.625000
  0
LINE
 10
146.667000
 11
149.667000
 20
79.625000
 21
79.625000
  0
LINE
 10
149.667000
 11
149.667000
 20
79.625000
 21
75.375000
  0
LINE
 10
149.667000
 11
146.667000
 20
75.375000
 21
75.375000
  0
LINE
 10
146.667000
 11
146.667000
 20
75.375000
 21
75.000000
  0
LINE
 10
146.667000
 11
141.667000
 20
75.000000
 21
75.000000
  0
LINE
 10
141.667000
 11
141.667000
 20
75.000000
 21
75.375000
  0
LINE
 10
141.667000
 11
138.667000
 20
75.375000
 21
75.375000
  0
LINE
 10
138.667000
 11
138.667000
 20
92.042000
 21
96.292000
  0
LINE
 10
138.667000
 11
141.667000
 20
96.292000
 21
96.292000
  0
LINE
 10
141.667000
 11
141.667000
 20
96.292000
 21
96.667000
  0
LINE
 10
141.667000
 11
146.667000
 20
96.667000
 21
96.667000
  0
LINE
 10
146.667000
 11
146.667000
 20
96.667000
 21
96.292000
  0
LINE
 10
146.667000
 11
149.667000
 20
96.292000
 21
96.292000
  0
LINE
 10
149.667000
 11
149.667000
 20
96.292000
 21
92.042000
  0
LINE
 10
149.667000
 11
146.667000
 20
92.042000
 21
92.042000
  0
LINE
 10
146.667000
 11
146.667000
 20
92.042000
 21
91.667000
  0
LINE
 10
146.667000
 11
141.667000
 20
91.667000
 21
91.667000
  0
LINE
 10
141.667000
 11
141.667000
 20
91.667000
 21
92.042000
  0
LINE
 10
141.667000
 11
138.667000
 20
92.042000
 21
92.042000
  0
LINE
 10
138.667000
 11
138.667000
 20
108.709000
 21
112.959000
  0
LINE
 10
138.667000
 11
141.667000
 20
112.959000
 21
112.959000
  0
LINE
 10
141.667000
 11
141.667000
 20
112.959000
 21
113.334000
  0
LINE
 10
141.667000
 11
146.667000
 20
113.334000
 21
113.334000
  0
LINE
 10
146.667000
 11
146.667000
 20
113.334000
 21
112.959000
  0
LINE
 10
146.667000
 11
149.667000
 20
112.959000
 21
112.959000
  0
LINE
 10
149.667000
 11
149.667000
 20
112.959000
 21
108.709000
  0
LINE
 10
149.667000
 11
146.667000
 20
108.709000
 21
108.709000
  0
LINE
 10
146.667000
 11
146.667000
 20
108.709000
 21
108.334000
  0
LINE
 10
146.667000
 11
141.667000
 20
108.334000
 21
108.334000
  0
LINE
 10
141.667000
 11
141.667000
 20
108.334000
 21
108.709000
  0
LINE
 10
141.667000
 11
138.667000
 20
108.709000
 21
108.709000
  0
LINE
 10
138.667000
 11
138.667000
 20
125.375000
 21
129.625000
  0
LINE
 10
138.667000
 11
141.667000
 20
129.625000
 21
129.625000
  0
LINE
 10
141.667000
 11
141.667000
 20
129.625000
 21
130.000000
  0
LINE
 10
141.667000
 11
146.667000
 20
130.000000
 21
130.000000
  0
LINE
 10
146.667000
 11
146.667000
 20
130.000000
 21
129.625000
  0
LINE
 10
146.667000
 11
149.667000
 20
129.625000
 21
129.625000
  0
LINE
 10
149.667000
 11
149.667000
 20
129.625000
 21
125.375000
  0
LINE
 10
149.667000
 11
146.667000
 20
125.375000
 21
125.375000
  0
LINE
 10
146.667000
 11
146.667000
 20
125.375000
 21
125.000000
  0
LINE
 10
146.667000
 11
141.667000
 20
125.000000
 21
125.000000
  0
LINE
 10
141.667000
 11
141.667000
 20
125.000000
 21
125.375000
  0
LINE
 10
141.667000
 11
138.667000
 20
125.375000
 21
125.375000
  0
LINE
 10
138.667000
 11
138.667000
 20
142.042000
 21
146.292000
  0
LINE
 10
138.667000
 11
141.667000
 20
146.292000
 21
146.292000
  0
LINE
 10
141.667000
 11
141.667000
 20
146.292000
 21
146.667000
  0
LINE
 10
141.667000
 11
146.667000
 20
146.667000
 21
146.667000
  0
LINE
 10
146.667000
 11
146.667000
 20
146.667000
 21
146.292000
  0
LINE
 10
146.667000
 11
149.667000
 20
146.292000
 21
146.292000
  0
LINE
 10
149.667000
 11
149.667000
 20
146.292000
 21
142.042000
  0
LINE
 10
149.667000
 11
146.667000
 20
142.042000
 21
142.042000
  0
LINE
 10
146.667000
 11
146.667000
 20
142.042000
 21
141.667000
  0
LINE
 10
146.667000
 11
141.667000
 20
141.667000
 21
141.667000
  0
LINE
 10
141.667000
 11
141.667000
 20
141.667000
 21
142.042000
  0
LINE
 10
141.667000
 11
138.667000
 20
142.042000
 21
142.042000
  0
LINE
 10
138.667000
 11
138.667000
 20
158.709000
 21
162.959000
  0
LINE
 10
138.667000
 11
141.667000
 20
162.959000
 21
162.959000
  0
LINE
 10
141.667000
 11
141.667000
 20
162.959000
 21
163.334000
  0
LINE
 10
141.667000
 11
146.667000
 20
163.334000
 21
163.334000
  0
LINE
 10
146.667000
 11
146.667000
 20
163.334000
 21
162.959000
  0
LINE
 10
146.667000
 11
149.667000
 20
162.959000
 21
162.959000
  0
LINE
 10
149.667000
 11
149.667000
 20
162.959000
 21
158.709000
  0
LINE
 10
149.667000
 11
146.667000
 20
158.709000
 21
158.709000
  0
LINE
 10
146.667000
 11
146.667000
 20
158.709000
 21
158.334000
  0
LINE
 10
146.667000
 11
141.667000
 20
158.334000
 21
158.334000
  0
LINE
 10
141.667000
 11
141.667000
 20
158.334000
 21
158.709000
  0
LINE
 10
141.667000
 11
138.667000
 20
158.709000
 21
158.709000
  0
LINE
 10
155.334000
 11
155.334000
 20
58.709000
 21
62.959000
  0
LINE
 10
155.334000
 11
158.334000
 20
62.959000
 21
62.959000
  0
LINE
 10
158.334000
 11
158.334000
 20
62.959000
 21
63.334000
  0
LINE
 10
158.334000
 11
163.334000
 20
63.334000
 21
63.334000
  0
LINE
 10
163.334000
 11
163.334000
 20
63.334000
 21
62.959000
  0
LINE
 10
163.334000
 11
166.334000
 20
62.959000
 21
62.959000
  0
LINE
 10
166.334000
 11
166.334000
 20
62.959000
 21
58.709000
  0
LINE
 10
166.334000
 11
163.334000
 20
58.709000
 21
58.709000
  0
LINE
 10
163.334000
 11
163.334000
 20
58.709000
 21
58.334000
  0
LINE
 10
163.334000
 11
158.334000
 20
58.334000
 21
58.334000
  0
LINE
 10
158.334000
 11
158.334000
 20
58.334000
 21
58.709000
  0
LINE
 10
158.334000
 11
155.334000
 20
58.709000
 21
58.709000
  0
LINE
 10
155.334000
 11
155.334000
 20
75.375000
 21
79.625000
  0
LINE
 10
155.334000
 11
158.334000
 20
79.625000
 21
79.625000
  0
LINE
 10
158.334000
 11
158.334000
 20
79.625000
 21
80.000000
  0
LINE
 10
158.334000
 11
163.334000
 20
80.000000
 21
80.000000
  0
LINE
 10
163.334000
 11
163.334000
 20
80.000000
 21
79.625000
  0
LINE
 10
163.334000
 11
166.334000
 20
79.625000
 21
79.625000
  0
LINE
 10
166.334000
 11
166.334000
 20
79.625000
 21
75.375000
  0
LINE
 10
166.334000
 11
163.334000
 20
75.375000
 21
75.375000
  0
LINE
 10
163.334000
 11
163.334000
 20
75.375000
 21
75.000000
  0
LINE
 10
163.334000
 11
158.334000
 20
75.000000
 21
75.000000
  0
LINE
 10
158.334000
 11
158.334000
 20
75.000000
 21
75.375000
  0
LINE
 10
158.334000
 11
155.334000
 20
75.375000
 21
75.375000
  0
LINE
 10
155.334000
 11
155.334000
 20
92.042000
 21
96.292000
  0
LINE
 10
155.334000
 11
158.334000
 20
96.292000
 21
96.292000
  0
LINE
 10
158.334000
 11
158.334000
 20
96.292000
 21
96.667000
  0
LINE
 10
158.334000
 11
163.334000
 20
96.667000
 21
96.667000
  0
LINE
 10
163.334000
 11
163.334000
 20
96.667000
 21
96.292000
  0
LINE
 10
163.334000
 11
166.334000
 20
96.292000
 21
96.292000
  0
LINE
 10
166.334000
 11
166.334000
 20
96.292000
 21
92.042000
  0
LINE
 10
166.334000
 11
163.334000
 20
92.042000
 21
92.042000
  0
LINE
 10
163.334000
 11
163.334000
 20
92.042000
 21
91.667000
  0
LINE
 10
163.334000
 11
158.334000
 20
91.667000
 21
91.667000
  0
LINE
 10
158.334000
 11
158.334000
 20
91.667000
 21
92.042000
  0
LINE
 10
158.334000
 11
155.334000
 20
92.042000
 21
92.042000
  0
LINE
 10
155.334000
 11
155.334000
 20
108.709000
 21
112.959000
  0
LINE
 10
155.334000
 11
158.334000
 20
112.959000
 21
112.959000
  0
LINE
 10
158.334000
 11
158.334000
 20
112.959000
 21
113.334000
  0
LINE
 10
158.334000
 11
163.334000
 20
113.334000
 21
113.334000
  0
LINE
 10
163.334000
 11
163.334000
 20
113.334000
 21
112.959000
  0
LINE
 10
163.334000
 11
166.334000
 20
112.959000
 21
112.959000
  0
LINE
 10
166.334000
 11
166.334000
 20
112.959000
 21
108.709000
  0
LINE
 10
166.334000
 11
163.334000
 20
108.709000
 21
108.709000
  0
LINE
 10
163.334000
 11
163.334000
 20
108.709000
 21
108.334000
  0
LINE
 10
163.334000
 11
158.334000
 20
108.334000
 21
108.334000
  0
LINE
 10
158.334000
 11
158.334000
 20
108.334000
 21
108.709000
  0
LINE
 10
158.334000
 11
155.334000
 20
108.709000
 21
108.709000
  0
LINE
 10
155.334000
 11
155.334000
 20
125.375000
 21
129.625000
  0
LINE
 10
155.334000
 11
158.334000
 20
129.625000
 21
129.625000
  0
LINE
 10
158.334000
 11
158.334000
 20
129.625000
 21
130.000000
  0
LINE
 10
158.334000
 11
163.334000
 20
130.000000
 21
130.000000
  0
LINE
 10
163.334000
 11
163.334000
 20
130.000000
 21
129.625000
  0
LINE
 10
163.334000
 11
166.334000
 20
129.625000
 21
129.625000
  0
LINE
 10
166.334000
 11
166.334000
 20
129.625000
 21
125.375000
  0
LINE
 10
166.334000
 11
163.334000
 20
125.375000
 21
125.375000
  0
LINE
 10
163.334000
 11
163.334000
 20
125.375000
 21
125.000000
  0
LINE
 10
163.334000
 11
158.334000
 20
125.000000
 21
125.000000
  0
LINE
 10
158.334000
 11
158.334000
 20
125.000000
 21
125.375000
  0
LINE
 10
158.334000
 11
155.334000
 20
125.375000
 21
125.375000
  0
LINE
 10
155.334000
 11
155.334000
 20
142.042000
 21
146.292000
  0
LINE
 10
155.334000
 11
158.334000
 20
146.292000
 21
146.292000
  0
LINE
 10
158.334000
 11
158.334000
 20
146.292000
 21
146.667000
  0
LINE
 10
158.334000
 11
163.334000
 20
146.667000
 21
146.667000
  0
LINE
 10
163.334000
 11
163.334000
 20
146.667000
 21
146.292000
  0
LINE
 10
163.334000
 11
166.334000
 20
146.292000
 21
146.292000
  0
LINE
 10
166.334000
 11
166.334000
 20
146.292000
 21
142.042000
  0
LINE
 10
166.334000
 11
163.334000
 20
142.042000
 21
142.042000
  0
LINE
 10
163.334000
 11
163.334000
 20
142.042000
 21
141.667000
  0
LINE
 10
163.334000
 11
158.334000
 20
141.667000
 21
141.667000
  0
LINE
 10
158.334000
 11
158.334000
 20
141.667000
 21
142.042000
  0
LINE
 10
158.334000
 11
155.334000
 20
142.042000
 21
142.042000
  0
LINE
 10
169.186000
 11
169.186000
 20
33.718000
 21
35.482000
  0
LINE
 10
169.186000
 11
170.864000
 20
35.482000
 21
36.027000
  0
LINE
 10
170.864000
 11
171.900000
 20
36.027000
 21
34.600000
  0
LINE
 10
171.900000
 11
170.864000
 20
34.600000
 21
33.173000
  0
LINE
 10
170.864000
 11
169.186000
 20
33.173000
 21
33.718000
  0
LINE
 10
169.186000
 11
169.186000
 20
164.518000
 21
166.282000
  0
LINE
 10
169.186000
 11
170.864000
 20
166.282000
 21
166.827000
  0
LINE
 10
170.864000
 11
171.900000
 20
166.827000
 21
165.400000
  0
LINE
 10
171.900000
 11
170.864000
 20
165.400000
 21
163.973000
  0
LINE
 10
170.864000
 11
169.186000
 20
163.973000
 21
164.518000
  0
ENDSEC
  0
EOF
